<svg width="453" height="74" viewBox="0 0 453 74" fill="none" xmlns="http://www.w3.org/2000/svg">
<g clip-path="url(#clip0_2278_2)">
<g filter="url(#filter0_d_2278_2)">
<mask id="path-1-outside-1_2278_2" maskUnits="userSpaceOnUse" x="7" y="6" width="430" height="49" fill="black">
<rect fill="white" x="7" y="6" width="430" height="49"/>
<path d="M20.8 53.6C17.5 53.6 14.8167 52.875 12.75 51.425C10.6833 49.9583 9.28333 47.9667 8.55 45.45L15.35 42.4C15.8833 43.7 16.55 44.6583 17.35 45.275C18.15 45.8917 19.1833 46.2 20.45 46.2C21.35 46.2 22.1333 45.9917 22.8 45.575C23.4833 45.1417 24.0417 44.5417 24.475 43.775C24.9083 42.9917 25.2167 42.0833 25.4 41.05L29.45 18H37.15L32.75 42.9C32.3667 45.1167 31.7083 46.925 30.775 48.325C29.8583 49.725 28.8083 50.8083 27.625 51.575C26.4583 52.3417 25.2667 52.8667 24.05 53.15C22.85 53.45 21.7667 53.6 20.8 53.6ZM52.1805 53.6C48.8305 53.6 46.1221 52.9083 44.0555 51.525C42.0055 50.125 40.6221 48.1167 39.9055 45.5C39.1888 42.8833 39.1638 39.7417 39.8305 36.075L43.1555 18H50.7055L47.2055 38.05C46.8721 39.9667 46.8805 41.5333 47.2305 42.75C47.5971 43.9667 48.2471 44.8667 49.1805 45.45C50.1305 46.0167 51.3221 46.3 52.7555 46.3C53.9221 46.3 55.0138 46.1083 56.0305 45.725C57.0471 45.3417 57.9221 44.6583 58.6555 43.675C59.4055 42.6917 59.9388 41.3 60.2555 39.5L64.0555 18H71.6055L67.7055 40.25C67.2388 42.9167 66.4971 45.125 65.4805 46.875C64.4638 48.6083 63.2471 49.9667 61.8305 50.95C60.4305 51.9167 58.9055 52.6 57.2555 53C55.6055 53.4 53.9138 53.6 52.1805 53.6ZM71.1816 53L77.3316 18H84.9816L80.0816 45.8H95.9816L94.6816 53H71.1816ZM97.4023 53L103.552 18H111.202L105.052 53H97.4023ZM127.175 53.6C124.642 53.6 122.484 53.1583 120.7 52.275C118.934 51.375 117.5 50.175 116.4 48.675C115.317 47.1583 114.525 45.45 114.025 43.55C113.525 41.6333 113.275 39.6667 113.275 37.65C113.275 35.4167 113.525 33.2917 114.025 31.275C114.525 29.2417 115.25 27.3833 116.2 25.7C117.167 24 118.342 22.5333 119.725 21.3C121.125 20.0667 122.717 19.1083 124.5 18.425C126.284 17.7417 128.242 17.4 130.375 17.4C132.659 17.4 134.642 17.8333 136.325 18.7C138.025 19.55 139.425 20.7167 140.525 22.2C141.642 23.6667 142.467 25.3333 143 27.2C143.55 29.05 143.825 30.9833 143.825 33C143.825 35.35 143.567 37.5667 143.05 39.65C142.534 41.7333 141.784 43.625 140.8 45.325C139.834 47.025 138.659 48.5 137.275 49.75C135.909 50.9833 134.375 51.9333 132.675 52.6C130.975 53.2667 129.142 53.6 127.175 53.6ZM127.125 46.3C128.192 46.3 129.192 46.0917 130.125 45.675C131.059 45.2583 131.9 44.6583 132.65 43.875C133.417 43.0917 134.075 42.15 134.625 41.05C135.175 39.95 135.592 38.725 135.875 37.375C136.175 36.025 136.325 34.5667 136.325 33C136.325 31.6833 136.109 30.3917 135.675 29.125C135.259 27.8417 134.575 26.7833 133.625 25.95C132.675 25.1167 131.409 24.7 129.825 24.7C128.725 24.7 127.709 24.9333 126.775 25.4C125.842 25.8667 125 26.5167 124.25 27.35C123.517 28.1833 122.892 29.15 122.375 30.25C121.859 31.3333 121.459 32.5083 121.175 33.775C120.909 35.0417 120.775 36.3333 120.775 37.65C120.775 39.0167 120.975 40.3667 121.375 41.7C121.792 43.0167 122.459 44.1167 123.375 45C124.309 45.8667 125.559 46.3 127.125 46.3Z"/>
<path d="M172.59 53.55C170.523 53.55 168.723 53.175 167.19 52.425C165.657 51.6583 164.382 50.6083 163.365 49.275C162.365 47.925 161.615 46.35 161.115 44.55C160.632 42.75 160.39 40.8167 160.39 38.75C160.39 35.9667 160.782 33.3083 161.565 30.775C162.348 28.225 163.482 25.95 164.965 23.95C166.448 21.9333 168.248 20.35 170.365 19.2C172.482 18.0333 174.873 17.45 177.54 17.45C179.84 17.45 181.773 17.8667 183.34 18.7C184.923 19.5167 186.19 20.575 187.14 21.875C188.107 23.1583 188.807 24.5 189.24 25.9L182.39 28.75C181.84 27.3667 181.123 26.3667 180.24 25.75C179.373 25.1167 178.373 24.8 177.24 24.8C175.74 24.8 174.423 25.2083 173.29 26.025C172.173 26.825 171.24 27.8917 170.49 29.225C169.74 30.5417 169.173 32 168.79 33.6C168.423 35.1833 168.24 36.7667 168.24 38.35C168.24 39.75 168.407 41.0333 168.74 42.2C169.073 43.35 169.607 44.275 170.34 44.975C171.073 45.6583 172.04 46 173.24 46C174.307 46 175.273 45.7833 176.14 45.35C177.023 44.9 177.773 44.35 178.39 43.7C179.007 43.0333 179.473 42.3667 179.79 41.7L186.49 44.5C185.257 46.6167 183.915 48.3417 182.465 49.675C181.032 51.0083 179.49 51.9917 177.84 52.625C176.19 53.2417 174.44 53.55 172.59 53.55ZM185.68 53L204.98 18H212.58L219.53 53H211.73L210.43 46.2H197.53L193.83 53H185.68ZM201.08 39.25H209.23L207.63 30.6C207.596 30.4167 207.546 30.1417 207.48 29.775C207.413 29.4083 207.346 29.0417 207.28 28.675C207.23 28.3083 207.196 28.0333 207.18 27.85C207.096 28.05 206.971 28.3167 206.805 28.65C206.655 28.9833 206.488 29.3167 206.305 29.65C206.138 29.9833 205.996 30.25 205.88 30.45L201.08 39.25ZM234.563 53.6C232.313 53.6 230.371 53.15 228.738 52.25C227.105 51.35 225.763 50.1333 224.713 48.6C223.663 47.05 222.88 45.3 222.363 43.35L229.363 40.8C229.863 42.4 230.571 43.7083 231.488 44.725C232.421 45.7417 233.813 46.25 235.663 46.25C236.546 46.25 237.346 46.125 238.063 45.875C238.78 45.625 239.346 45.2667 239.763 44.8C240.196 44.3333 240.413 43.7667 240.413 43.1C240.413 42.3167 240.163 41.6583 239.663 41.125C239.18 40.5917 238.53 40.1167 237.713 39.7C236.896 39.2833 235.996 38.8667 235.013 38.45C233.98 38.0167 232.921 37.5333 231.838 37C230.755 36.4667 229.755 35.8083 228.838 35.025C227.938 34.225 227.205 33.2417 226.638 32.075C226.088 30.9083 225.813 29.4667 225.813 27.75C225.813 25.8 226.313 24.05 227.313 22.5C228.313 20.9333 229.746 19.6917 231.613 18.775C233.496 17.8583 235.763 17.4 238.413 17.4C240.963 17.4 243.03 17.85 244.613 18.75C246.196 19.6333 247.388 20.75 248.188 22.1C248.988 23.4333 249.48 24.7833 249.663 26.15L242.713 28.35C242.563 27.2667 242.071 26.3417 241.238 25.575C240.421 24.7917 239.313 24.4 237.913 24.4C236.463 24.4 235.363 24.7 234.613 25.3C233.88 25.8833 233.513 26.5667 233.513 27.35C233.513 27.9333 233.73 28.4417 234.163 28.875C234.613 29.2917 235.205 29.675 235.938 30.025C236.688 30.375 237.513 30.7333 238.413 31.1C239.496 31.55 240.621 32.0583 241.788 32.625C242.971 33.175 244.063 33.8667 245.063 34.7C246.08 35.5333 246.896 36.575 247.513 37.825C248.146 39.0583 248.463 40.5667 248.463 42.35C248.463 44.55 247.888 46.5 246.738 48.2C245.605 49.8833 243.996 51.2083 241.913 52.175C239.83 53.125 237.38 53.6 234.563 53.6ZM257.593 53L262.493 25.3H252.993L254.243 18H280.893L279.643 25.3H270.093L265.193 53H257.593ZM272.789 53L292.089 18H299.689L306.639 53H298.839L297.539 46.2H284.639L280.939 53H272.789ZM288.189 39.25H296.339L294.739 30.6C294.706 30.4167 294.656 30.1417 294.589 29.775C294.522 29.4083 294.456 29.0417 294.389 28.675C294.339 28.3083 294.306 28.0333 294.289 27.85C294.206 28.05 294.081 28.3167 293.914 28.65C293.764 28.9833 293.597 29.3167 293.414 29.65C293.247 29.9833 293.106 30.25 292.989 30.45L288.189 39.25ZM309.121 53L315.271 18H322.371L331.171 36.05C331.354 36.4167 331.571 36.9 331.821 37.5C332.071 38.0833 332.254 38.6667 332.371 39.25C332.404 38.65 332.454 38.05 332.521 37.45C332.588 36.8333 332.654 36.3167 332.721 35.9L335.871 18H343.371L337.221 53H330.621L321.221 34.1C321.121 33.9 321.013 33.65 320.896 33.35C320.779 33.05 320.663 32.725 320.546 32.375C320.429 32.025 320.321 31.6667 320.221 31.3C320.221 31.6 320.204 31.925 320.171 32.275C320.154 32.625 320.121 32.9667 320.071 33.3C320.021 33.6333 319.971 33.9333 319.921 34.2L316.621 53H309.121ZM333.671 14.6C332.754 14.6 331.946 14.475 331.246 14.225C330.546 13.9583 329.888 13.6667 329.271 13.35C328.788 13.1 328.288 12.875 327.771 12.675C327.271 12.4583 326.738 12.35 326.171 12.35C325.571 12.35 325.029 12.5083 324.546 12.825C324.079 13.125 323.754 13.65 323.571 14.4H320.371C320.721 12.35 321.429 10.6333 322.496 9.25C323.579 7.85 325.221 7.15 327.421 7.15C328.338 7.15 329.146 7.28333 329.846 7.55C330.546 7.81667 331.204 8.1 331.821 8.4C332.354 8.66666 332.871 8.9 333.371 9.1C333.871 9.3 334.404 9.4 334.971 9.4C335.571 9.4 336.104 9.25 336.571 8.95C337.038 8.63333 337.354 8.1 337.521 7.35H340.771C340.404 9.41667 339.688 11.1417 338.621 12.525C337.554 13.9083 335.904 14.6 333.671 14.6ZM343.154 53L349.304 18H373.154L371.904 25.2H355.754L354.654 31.35H363.654L362.404 38.55H353.354L352.104 45.75H369.304L368.004 53H343.154ZM372.354 53L378.504 18H389.854C392.304 18 394.437 18.4167 396.254 19.25C398.087 20.0667 399.604 21.2167 400.804 22.7C402.004 24.1667 402.904 25.8917 403.504 27.875C404.104 29.8417 404.404 31.9667 404.404 34.25C404.404 36.0333 404.17 37.825 403.704 39.625C403.254 41.4083 402.554 43.1083 401.604 44.725C400.654 46.325 399.445 47.75 397.979 49C396.529 50.2333 394.804 51.2083 392.804 51.925C390.804 52.6417 388.52 53 385.954 53H372.354ZM381.004 45.75H385.704C387.404 45.75 388.904 45.4417 390.204 44.825C391.504 44.1917 392.595 43.35 393.479 42.3C394.362 41.2333 395.029 40.0417 395.479 38.725C395.929 37.3917 396.154 36.0333 396.154 34.65C396.154 32.7167 395.879 31.0417 395.329 29.625C394.779 28.2083 393.945 27.1167 392.829 26.35C391.729 25.5833 390.337 25.2 388.654 25.2H384.604L381.004 45.75ZM402.33 53L421.63 18H429.23L436.18 53H428.38L427.08 46.2H414.18L410.48 53H402.33ZM417.73 39.25H425.88L424.28 30.6C424.247 30.4167 424.197 30.1417 424.13 29.775C424.063 29.4083 423.997 29.0417 423.93 28.675C423.88 28.3083 423.847 28.0333 423.83 27.85C423.747 28.05 423.622 28.3167 423.455 28.65C423.305 28.9833 423.138 29.3167 422.955 29.65C422.788 29.9833 422.647 30.25 422.53 30.45L417.73 39.25Z"/>
</mask>
<path d="M20.8 53.6C17.5 53.6 14.8167 52.875 12.75 51.425C10.6833 49.9583 9.28333 47.9667 8.55 45.45L15.35 42.4C15.8833 43.7 16.55 44.6583 17.35 45.275C18.15 45.8917 19.1833 46.2 20.45 46.2C21.35 46.2 22.1333 45.9917 22.8 45.575C23.4833 45.1417 24.0417 44.5417 24.475 43.775C24.9083 42.9917 25.2167 42.0833 25.4 41.05L29.45 18H37.15L32.75 42.9C32.3667 45.1167 31.7083 46.925 30.775 48.325C29.8583 49.725 28.8083 50.8083 27.625 51.575C26.4583 52.3417 25.2667 52.8667 24.05 53.15C22.85 53.45 21.7667 53.6 20.8 53.6ZM52.1805 53.6C48.8305 53.6 46.1221 52.9083 44.0555 51.525C42.0055 50.125 40.6221 48.1167 39.9055 45.5C39.1888 42.8833 39.1638 39.7417 39.8305 36.075L43.1555 18H50.7055L47.2055 38.05C46.8721 39.9667 46.8805 41.5333 47.2305 42.75C47.5971 43.9667 48.2471 44.8667 49.1805 45.45C50.1305 46.0167 51.3221 46.3 52.7555 46.3C53.9221 46.3 55.0138 46.1083 56.0305 45.725C57.0471 45.3417 57.9221 44.6583 58.6555 43.675C59.4055 42.6917 59.9388 41.3 60.2555 39.5L64.0555 18H71.6055L67.7055 40.25C67.2388 42.9167 66.4971 45.125 65.4805 46.875C64.4638 48.6083 63.2471 49.9667 61.8305 50.95C60.4305 51.9167 58.9055 52.6 57.2555 53C55.6055 53.4 53.9138 53.6 52.1805 53.6ZM71.1816 53L77.3316 18H84.9816L80.0816 45.8H95.9816L94.6816 53H71.1816ZM97.4023 53L103.552 18H111.202L105.052 53H97.4023ZM127.175 53.6C124.642 53.6 122.484 53.1583 120.7 52.275C118.934 51.375 117.5 50.175 116.4 48.675C115.317 47.1583 114.525 45.45 114.025 43.55C113.525 41.6333 113.275 39.6667 113.275 37.65C113.275 35.4167 113.525 33.2917 114.025 31.275C114.525 29.2417 115.25 27.3833 116.2 25.7C117.167 24 118.342 22.5333 119.725 21.3C121.125 20.0667 122.717 19.1083 124.5 18.425C126.284 17.7417 128.242 17.4 130.375 17.4C132.659 17.4 134.642 17.8333 136.325 18.7C138.025 19.55 139.425 20.7167 140.525 22.2C141.642 23.6667 142.467 25.3333 143 27.2C143.55 29.05 143.825 30.9833 143.825 33C143.825 35.35 143.567 37.5667 143.05 39.65C142.534 41.7333 141.784 43.625 140.8 45.325C139.834 47.025 138.659 48.5 137.275 49.75C135.909 50.9833 134.375 51.9333 132.675 52.6C130.975 53.2667 129.142 53.6 127.175 53.6ZM127.125 46.3C128.192 46.3 129.192 46.0917 130.125 45.675C131.059 45.2583 131.9 44.6583 132.65 43.875C133.417 43.0917 134.075 42.15 134.625 41.05C135.175 39.95 135.592 38.725 135.875 37.375C136.175 36.025 136.325 34.5667 136.325 33C136.325 31.6833 136.109 30.3917 135.675 29.125C135.259 27.8417 134.575 26.7833 133.625 25.95C132.675 25.1167 131.409 24.7 129.825 24.7C128.725 24.7 127.709 24.9333 126.775 25.4C125.842 25.8667 125 26.5167 124.25 27.35C123.517 28.1833 122.892 29.15 122.375 30.25C121.859 31.3333 121.459 32.5083 121.175 33.775C120.909 35.0417 120.775 36.3333 120.775 37.65C120.775 39.0167 120.975 40.3667 121.375 41.7C121.792 43.0167 122.459 44.1167 123.375 45C124.309 45.8667 125.559 46.3 127.125 46.3Z" fill="white"/>
<path d="M12.75 51.425L12.4606 51.8328L12.4628 51.8343L12.75 51.425ZM8.55 45.45L8.34538 44.9938L7.94818 45.1719L8.06996 45.5899L8.55 45.45ZM15.35 42.4L15.8126 42.2102L15.6166 41.7324L15.1454 41.9438L15.35 42.4ZM17.35 45.275L17.6553 44.879L17.6553 44.879L17.35 45.275ZM22.8 45.575L23.065 45.999L23.0678 45.9973L22.8 45.575ZM24.475 43.775L24.9103 44.021L24.9125 44.017L24.475 43.775ZM25.4 41.05L25.8923 41.1373L25.8925 41.1365L25.4 41.05ZM29.45 18V17.5H29.0302L28.9575 17.9135L29.45 18ZM37.15 18L37.6424 18.087L37.7461 17.5H37.15V18ZM32.75 42.9L32.2576 42.813L32.2573 42.8148L32.75 42.9ZM30.775 48.325L30.359 48.0476L30.3567 48.0511L30.775 48.325ZM27.625 51.575L27.3531 51.1554L27.3504 51.1571L27.625 51.575ZM24.05 53.15L23.9366 52.663L23.9287 52.6649L24.05 53.15ZM20.8 53.1C17.5714 53.1 14.9973 52.3909 13.0372 51.0157L12.4628 51.8343C14.6361 53.3591 17.4286 54.1 20.8 54.1V53.1ZM13.0394 51.0172C11.068 49.6182 9.733 47.7226 9.03004 45.3101L8.06996 45.5899C8.83366 48.2108 10.2987 50.2985 12.4606 51.8328L13.0394 51.0172ZM8.75462 45.9062L15.5546 42.8562L15.1454 41.9438L8.34538 44.9938L8.75462 45.9062ZM14.8874 42.5898C15.4417 43.9408 16.153 44.9836 17.0447 45.671L17.6553 44.879C16.947 44.333 16.325 43.4592 15.8126 42.2102L14.8874 42.5898ZM17.0447 45.671C17.9524 46.3707 19.1014 46.7 20.45 46.7V45.7C19.2652 45.7 18.3476 45.4127 17.6553 44.879L17.0447 45.671ZM20.45 46.7C21.4298 46.7 22.3079 46.4722 23.065 45.999L22.535 45.151C21.9588 45.5111 21.2702 45.7 20.45 45.7V46.7ZM23.0678 45.9973C23.8266 45.516 24.4401 44.8528 24.9103 44.021L24.0397 43.529C23.6432 44.2305 23.1401 44.7673 22.5322 45.1527L23.0678 45.9973ZM24.9125 44.017C25.3767 43.178 25.701 42.2158 25.8923 41.1373L24.9077 40.9627C24.7324 41.9509 24.44 42.8053 24.0375 43.533L24.9125 44.017ZM25.8925 41.1365L29.9425 18.0865L28.9575 17.9135L24.9075 40.9635L25.8925 41.1365ZM29.45 18.5H37.15V17.5H29.45V18.5ZM36.6576 17.913L32.2576 42.813L33.2424 42.987L37.6424 18.087L36.6576 17.913ZM32.2573 42.8148C31.8821 44.9847 31.243 46.7217 30.359 48.0476L31.191 48.6024C32.1737 47.1283 32.8513 45.2486 33.2427 42.9852L32.2573 42.8148ZM30.3567 48.0511C29.4711 49.4036 28.4682 50.433 27.3531 51.1554L27.8969 51.9946C29.1485 51.1837 30.2455 50.0464 31.1933 48.5989L30.3567 48.0511ZM27.3504 51.1571C26.2272 51.8952 25.0895 52.3945 23.9366 52.663L24.1634 53.637C25.4438 53.3388 26.6894 52.7881 27.8996 51.9929L27.3504 51.1571ZM23.9287 52.6649C22.758 52.9576 21.7163 53.1 20.8 53.1V54.1C21.8171 54.1 22.942 53.9424 24.1713 53.6351L23.9287 52.6649ZM44.0555 51.525L43.7735 51.9379L43.7773 51.9405L44.0555 51.525ZM39.9055 45.5L39.4232 45.6321L39.4232 45.6321L39.9055 45.5ZM39.8305 36.075L39.3387 35.9845L39.3385 35.9856L39.8305 36.075ZM43.1555 18V17.5H42.7391L42.6637 17.9095L43.1555 18ZM50.7055 18L51.198 18.086L51.3003 17.5H50.7055V18ZM47.2055 38.05L46.7129 37.964L46.7129 37.9643L47.2055 38.05ZM47.2305 42.75L46.7499 42.8882L46.7517 42.8943L47.2305 42.75ZM49.1805 45.45L48.9154 45.8741L48.9243 45.8794L49.1805 45.45ZM56.0305 45.725L55.8541 45.2572L55.8541 45.2572L56.0305 45.725ZM58.6555 43.675L58.2579 43.3718L58.2547 43.3761L58.6555 43.675ZM60.2555 39.5L59.7631 39.413L59.763 39.4134L60.2555 39.5ZM64.0555 18V17.5H63.6361L63.5631 17.913L64.0555 18ZM71.6055 18L72.098 18.0863L72.2007 17.5H71.6055V18ZM67.7055 40.25L67.213 40.1637L67.213 40.1638L67.7055 40.25ZM65.4805 46.875L65.9118 47.128L65.9128 47.1262L65.4805 46.875ZM61.8305 50.95L62.1146 51.3614L62.1156 51.3607L61.8305 50.95ZM57.2555 53L57.1377 52.5141L57.2555 53ZM52.1805 53.1C48.8959 53.1 46.2939 52.4216 44.3336 51.1095L43.7773 51.9405C45.9504 53.395 48.765 54.1 52.1805 54.1V53.1ZM44.3375 51.1121C42.3948 49.7854 41.0762 47.8816 40.3877 45.3679L39.4232 45.6321C40.1681 48.3517 41.6162 50.4646 43.7735 51.9379L44.3375 51.1121ZM40.3877 45.3679C39.6968 42.8452 39.6644 39.7834 40.3224 36.1644L39.3385 35.9856C38.6632 39.6999 38.6808 42.9215 39.4232 45.6321L40.3877 45.3679ZM40.3222 36.1655L43.6472 18.0905L42.6637 17.9095L39.3387 35.9845L40.3222 36.1655ZM43.1555 18.5H50.7055V17.5H43.1555V18.5ZM50.2129 17.914L46.7129 37.964L47.698 38.136L51.198 18.086L50.2129 17.914ZM46.7129 37.9643C46.3729 39.9193 46.3708 41.5702 46.75 42.8882L47.711 42.6118C47.3901 41.4964 47.3714 40.014 47.6981 38.1357L46.7129 37.9643ZM46.7517 42.8943C47.1476 44.208 47.8636 45.2166 48.9155 45.874L49.4455 45.026C48.6306 44.5167 48.0466 43.7254 47.7092 42.6057L46.7517 42.8943ZM48.9243 45.8794C49.9715 46.504 51.2581 46.8 52.7555 46.8V45.8C51.3862 45.8 50.2894 45.5293 49.4366 45.0206L48.9243 45.8794ZM52.7555 46.8C53.9779 46.8 55.1298 46.599 56.2069 46.1928L55.8541 45.2572C54.8978 45.6177 53.8663 45.8 52.7555 45.8V46.8ZM56.2069 46.1928C57.3241 45.7716 58.2734 45.0237 59.0563 43.9739L58.2547 43.3761C57.5709 44.293 56.7702 44.9117 55.8541 45.2572L56.2069 46.1928ZM59.053 43.9782C59.8691 42.9082 60.4235 41.4306 60.7479 39.5866L59.763 39.4134C59.4541 41.1694 58.9418 42.4751 58.2579 43.3718L59.053 43.9782ZM60.7478 39.587L64.5478 18.087L63.5631 17.913L59.7631 39.413L60.7478 39.587ZM64.0555 18.5H71.6055V17.5H64.0555V18.5ZM71.113 17.9137L67.213 40.1637L68.198 40.3363L72.098 18.0863L71.113 17.9137ZM67.213 40.1638C66.7532 42.7908 66.027 44.9388 65.0481 46.6238L65.9128 47.1262C66.9672 45.3112 67.7244 43.0425 68.198 40.3362L67.213 40.1638ZM65.0492 46.622C64.0632 48.3031 62.8934 49.6036 61.5454 50.5393L62.1156 51.3607C63.6009 50.3298 64.8644 48.9136 65.9118 47.128L65.0492 46.622ZM61.5464 50.5386C60.1967 51.4705 58.728 52.1285 57.1377 52.5141L57.3733 53.4859C59.0829 53.0715 60.6643 52.3628 62.1146 51.3614L61.5464 50.5386ZM57.1377 52.5141C55.527 52.9045 53.875 53.1 52.1805 53.1V54.1C53.9527 54.1 55.6839 53.8955 57.3733 53.4859L57.1377 52.5141ZM71.1816 53L70.6892 52.9135L70.5861 53.5H71.1816V53ZM77.3316 18V17.5H76.9118L76.8392 17.9135L77.3316 18ZM84.9816 18L85.4741 18.0868L85.5775 17.5H84.9816V18ZM80.0816 45.8L79.5892 45.7132L79.4858 46.3H80.0816V45.8ZM95.9816 45.8L96.4737 45.8888L96.58 45.3H95.9816V45.8ZM94.6816 53V53.5H95.0994L95.1737 53.0888L94.6816 53ZM71.6741 53.0865L77.8241 18.0865L76.8392 17.9135L70.6892 52.9135L71.6741 53.0865ZM77.3316 18.5H84.9816V17.5H77.3316V18.5ZM84.4892 17.9132L79.5892 45.7132L80.5741 45.8868L85.4741 18.0868L84.4892 17.9132ZM80.0816 46.3H95.9816V45.3H80.0816V46.3ZM95.4896 45.7112L94.1896 52.9112L95.1737 53.0888L96.4737 45.8888L95.4896 45.7112ZM94.6816 52.5H71.1816V53.5H94.6816V52.5ZM97.4023 53L96.9099 52.9135L96.8068 53.5H97.4023V53ZM103.552 18V17.5H103.133L103.06 17.9135L103.552 18ZM111.202 18L111.695 18.0865L111.798 17.5H111.202V18ZM105.052 53V53.5H105.472L105.545 53.0865L105.052 53ZM97.8948 53.0865L104.045 18.0865L103.06 17.9135L96.9099 52.9135L97.8948 53.0865ZM103.552 18.5H111.202V17.5H103.552V18.5ZM110.71 17.9135L104.56 52.9135L105.545 53.0865L111.695 18.0865L110.71 17.9135ZM105.052 52.5H97.4023V53.5H105.052V52.5ZM120.7 52.275L120.473 52.7205L120.478 52.723L120.7 52.275ZM116.4 48.675L115.993 48.9656L115.997 48.9707L116.4 48.675ZM114.025 43.55L113.542 43.6762L113.542 43.6772L114.025 43.55ZM114.025 31.275L114.511 31.3953L114.511 31.3944L114.025 31.275ZM116.2 25.7L115.766 25.4528L115.765 25.4543L116.2 25.7ZM119.725 21.3L119.395 20.9248L119.393 20.9268L119.725 21.3ZM136.325 18.7L136.097 19.1446L136.102 19.1472L136.325 18.7ZM140.525 22.2L140.124 22.4979L140.128 22.5029L140.525 22.2ZM143 27.2L142.52 27.3374L142.521 27.3425L143 27.2ZM143.05 39.65L142.565 39.5296L142.565 39.5296L143.05 39.65ZM140.8 45.325L140.368 45.0746L140.366 45.0778L140.8 45.325ZM137.275 49.75L137.61 50.1212L137.611 50.121L137.275 49.75ZM132.675 52.6L132.493 52.1345L132.675 52.6ZM132.65 43.875L132.293 43.5252L132.289 43.5292L132.65 43.875ZM134.625 41.05L135.073 41.2736L135.073 41.2736L134.625 41.05ZM135.875 37.375L135.387 37.2665L135.386 37.2723L135.875 37.375ZM135.675 29.125L135.2 29.2794L135.202 29.2868L135.675 29.125ZM133.625 25.95L133.296 26.3259L133.296 26.3259L133.625 25.95ZM126.775 25.4L126.999 25.8472L126.999 25.8472L126.775 25.4ZM124.25 27.35L123.879 27.0155L123.875 27.0197L124.25 27.35ZM122.375 30.25L122.827 30.4652L122.828 30.4626L122.375 30.25ZM121.175 33.775L120.687 33.6658L120.686 33.672L121.175 33.775ZM121.375 41.7L120.896 41.8437L120.899 41.8509L121.375 41.7ZM123.375 45L123.028 45.3601L123.035 45.3664L123.375 45ZM127.175 53.1C124.699 53.1 122.62 52.6681 120.922 51.827L120.478 52.723C122.347 53.6486 124.585 54.1 127.175 54.1V53.1ZM120.927 51.8295C119.226 50.9626 117.854 49.8122 116.804 48.3793L115.997 48.9707C117.146 50.5378 118.642 51.7874 120.473 52.7205L120.927 51.8295ZM116.807 48.3844C115.761 46.9197 114.994 45.2673 114.509 43.4228L113.542 43.6772C114.056 45.6327 114.873 47.397 115.994 48.9656L116.807 48.3844ZM114.509 43.4238C114.02 41.5491 113.775 39.6249 113.775 37.65H112.775C112.775 39.7085 113.031 41.7176 113.542 43.6762L114.509 43.4238ZM113.775 37.65C113.775 35.4542 114.021 33.3698 114.511 31.3953L113.54 31.1547C113.03 33.2135 112.775 35.3791 112.775 37.65H113.775ZM114.511 31.3944C115.001 29.4016 115.71 27.5863 116.636 25.9457L115.765 25.4543C114.791 27.1804 114.05 29.0817 113.54 31.1556L114.511 31.3944ZM116.635 25.9472C117.576 24.2918 118.718 22.8684 120.058 21.6732L119.393 20.9268C117.967 22.1983 116.758 23.7082 115.766 25.4528L116.635 25.9472ZM120.056 21.6752C121.41 20.4821 122.95 19.5544 124.679 18.8919L124.321 17.9581C122.484 18.6622 120.841 19.6512 119.395 20.9248L120.056 21.6752ZM124.679 18.8919C126.399 18.2329 128.296 17.9 130.375 17.9V16.9C128.188 16.9 126.168 17.2505 124.321 17.9581L124.679 18.8919ZM130.375 17.9C132.595 17.9 134.497 18.3211 136.097 19.1445L136.554 18.2555C134.787 17.3456 132.722 16.9 130.375 16.9V17.9ZM136.102 19.1472C137.734 19.9632 139.072 21.0795 140.124 22.4978L140.927 21.9022C139.779 20.3539 138.317 19.1368 136.549 18.2528L136.102 19.1472ZM140.128 22.5029C141.205 23.9174 142.002 25.5273 142.52 27.3374L143.481 27.0626C142.932 25.1393 142.08 23.4159 140.923 21.8971L140.128 22.5029ZM142.521 27.3425C143.057 29.1442 143.325 31.0294 143.325 33H144.325C144.325 30.9373 144.044 28.9558 143.48 27.0575L142.521 27.3425ZM143.325 33C143.325 35.3132 143.071 37.4892 142.565 39.5296L143.536 39.7704C144.063 37.6441 144.325 35.3868 144.325 33H143.325ZM142.565 39.5296C142.059 41.5716 141.325 43.4189 140.368 45.0746L141.233 45.5754C142.242 43.8311 143.009 41.8951 143.536 39.7704L142.565 39.5296ZM140.366 45.0778C139.424 46.7338 138.282 48.1665 136.94 49.379L137.611 50.121C139.035 48.8335 140.243 47.3162 141.235 45.5722L140.366 45.0778ZM136.94 49.3788C135.618 50.5721 134.136 51.49 132.493 52.1345L132.858 53.0655C134.614 52.3766 136.199 51.3945 137.61 50.1212L136.94 49.3788ZM132.493 52.1345C130.855 52.7767 129.084 53.1 127.175 53.1V54.1C129.2 54.1 131.095 53.7567 132.858 53.0655L132.493 52.1345ZM127.125 46.8C128.259 46.8 129.329 46.5781 130.329 46.1316L129.922 45.2184C129.055 45.6052 128.125 45.8 127.125 45.8V46.8ZM130.329 46.1316C131.325 45.6869 132.22 45.048 133.012 44.2208L132.289 43.5292C131.581 44.2687 130.792 44.8297 129.922 45.2184L130.329 46.1316ZM133.008 44.2247C133.815 43.4001 134.502 42.4145 135.073 41.2736L134.178 40.8264C133.649 41.8855 133.019 42.7833 132.293 43.5253L133.008 44.2247ZM135.073 41.2736C135.644 40.131 136.074 38.8646 136.365 37.4777L135.386 37.2723C135.11 38.5854 134.707 39.769 134.178 40.8264L135.073 41.2736ZM136.363 37.4835C136.672 36.0935 136.825 34.5984 136.825 33H135.825C135.825 34.5349 135.678 35.9565 135.387 37.2665L136.363 37.4835ZM136.825 33C136.825 31.6273 136.599 30.281 136.148 28.9632L135.202 29.2868C135.618 30.5023 135.825 31.7393 135.825 33H136.825ZM136.151 28.9706C135.708 27.6077 134.977 26.4708 133.955 25.5741L133.296 26.3259C134.173 27.0958 134.809 28.0757 135.2 29.2794L136.151 28.9706ZM133.955 25.5741C132.893 24.6421 131.498 24.2 129.825 24.2V25.2C131.319 25.2 132.458 25.5913 133.296 26.3259L133.955 25.5741ZM129.825 24.2C128.652 24.2 127.558 24.4495 126.552 24.9528L126.999 25.8472C127.859 25.4171 128.799 25.2 129.825 25.2V24.2ZM126.552 24.9528C125.558 25.4495 124.667 26.1392 123.879 27.0155L124.622 27.6845C125.333 26.8942 126.126 26.2839 126.999 25.8472L126.552 24.9528ZM123.875 27.0197C123.108 27.8916 122.458 28.8987 121.923 30.0374L122.828 30.4626C123.326 29.4012 123.926 28.4751 124.626 27.6803L123.875 27.0197ZM121.924 30.0348C121.39 31.1546 120.978 32.3655 120.687 33.6659L121.663 33.8841C121.939 32.6512 122.327 31.5121 122.827 30.4652L121.924 30.0348ZM120.686 33.672C120.412 34.9731 120.275 36.2993 120.275 37.65H121.275C121.275 36.3673 121.405 35.1102 121.665 33.878L120.686 33.672ZM120.275 37.65C120.275 39.0662 120.483 40.4646 120.896 41.8437L121.854 41.5563C121.468 40.2687 121.275 38.9671 121.275 37.65H120.275ZM120.899 41.8509C121.338 43.2401 122.047 44.414 123.028 45.36L123.722 44.64C122.871 43.8193 122.246 42.7933 121.852 41.5491L120.899 41.8509ZM123.035 45.3664C124.081 46.3376 125.463 46.8 127.125 46.8V45.8C125.654 45.8 124.536 45.3957 123.716 44.6336L123.035 45.3664ZM167.19 52.425L166.966 52.8722L166.97 52.8741L167.19 52.425ZM163.365 49.275L162.963 49.5726L162.967 49.5782L163.365 49.275ZM161.115 44.55L160.632 44.6797L160.633 44.6838L161.115 44.55ZM161.565 30.775L162.043 30.9227L162.043 30.9218L161.565 30.775ZM164.965 23.95L165.366 24.2479L165.368 24.2463L164.965 23.95ZM170.365 19.2L170.604 19.6393L170.606 19.6379L170.365 19.2ZM183.34 18.7L183.105 19.1415L183.111 19.1444L183.34 18.7ZM187.14 21.875L186.736 22.17L186.74 22.1758L187.14 21.875ZM189.24 25.9L189.432 26.3616L189.852 26.1868L189.717 25.7522L189.24 25.9ZM182.39 28.75L181.925 28.9347L182.113 29.4068L182.582 29.2116L182.39 28.75ZM180.24 25.75L179.945 26.1538L179.954 26.16L180.24 25.75ZM173.29 26.025L173.581 26.4315L173.582 26.4307L173.29 26.025ZM170.49 29.225L170.924 29.4725L170.926 29.4701L170.49 29.225ZM168.79 33.6L168.304 33.4835L168.303 33.4872L168.79 33.6ZM168.74 42.2L168.259 42.3374L168.26 42.3392L168.74 42.2ZM170.34 44.975L169.995 45.3367L169.999 45.3408L170.34 44.975ZM176.14 45.35L176.363 45.7972L176.367 45.7955L176.14 45.35ZM178.39 43.7L178.753 44.0442L178.757 44.0395L178.39 43.7ZM179.79 41.7L179.983 41.2387L179.543 41.0548L179.338 41.4855L179.79 41.7ZM186.49 44.5L186.922 44.7517L187.209 44.2587L186.683 44.0387L186.49 44.5ZM182.465 49.675L182.126 49.3069L182.124 49.3089L182.465 49.675ZM177.84 52.625L178.015 53.0934L178.019 53.0918L177.84 52.625ZM172.59 53.05C170.584 53.05 168.862 52.6861 167.41 51.9759L166.97 52.8741C168.585 53.6639 170.463 54.05 172.59 54.05V53.05ZM167.413 51.9778C165.947 51.2444 164.732 50.2431 163.762 48.9718L162.967 49.5782C164.031 50.9736 165.366 52.0722 166.966 52.8722L167.413 51.9778ZM163.767 48.9774C162.807 47.6818 162.082 46.1637 161.597 44.4162L160.633 44.6838C161.148 46.5363 161.923 48.1682 162.963 49.5726L163.767 48.9774ZM161.598 44.4203C161.127 42.6669 160.89 40.7776 160.89 38.75H159.89C159.89 40.8558 160.136 42.8331 160.632 44.6797L161.598 44.4203ZM160.89 38.75C160.89 36.0142 161.275 33.4059 162.043 30.9227L161.087 30.6273C160.288 33.2108 159.89 35.9191 159.89 38.75H160.89ZM162.043 30.9218C162.811 28.4223 163.919 26.1991 165.366 24.2479L164.563 23.6521C163.044 25.7009 161.886 28.0277 161.087 30.6282L162.043 30.9218ZM165.368 24.2463C166.809 22.2864 168.554 20.7529 170.604 19.6393L170.126 18.7607C167.942 19.9471 166.087 21.5803 164.562 23.6537L165.368 24.2463ZM170.606 19.6379C172.642 18.5161 174.949 17.95 177.54 17.95V16.95C174.798 16.95 172.322 17.5506 170.123 18.7621L170.606 19.6379ZM177.54 17.95C179.781 17.95 181.629 18.3563 183.105 19.1414L183.575 18.2586C181.917 17.3771 179.898 16.95 177.54 16.95V17.95ZM183.111 19.1444C184.632 19.9293 185.837 20.9391 186.736 22.17L187.544 21.58C186.543 20.2109 185.214 19.104 183.569 18.2556L183.111 19.1444ZM186.74 22.1758C187.676 23.4175 188.347 24.708 188.762 26.0478L189.717 25.7522C189.266 24.292 188.537 22.8992 187.539 21.5742L186.74 22.1758ZM189.048 25.4384L182.198 28.2884L182.582 29.2116L189.432 26.3616L189.048 25.4384ZM182.854 28.5653C182.282 27.1246 181.515 26.0303 180.526 25.34L179.954 26.16C180.732 26.703 181.398 27.6088 181.925 28.9347L182.854 28.5653ZM180.535 25.3463C179.578 24.6468 178.473 24.3 177.24 24.3V25.3C178.273 25.3 179.169 25.5866 179.945 26.1537L180.535 25.3463ZM177.24 24.3C175.643 24.3 174.222 24.7367 172.998 25.6193L173.582 26.4307C174.624 25.6799 175.837 25.3 177.24 25.3V24.3ZM172.999 25.6185C171.816 26.4657 170.836 27.5901 170.054 28.9799L170.926 29.4701C171.644 28.1932 172.53 27.1843 173.581 26.4315L172.999 25.6185ZM170.055 28.9775C169.28 30.3385 168.697 31.8415 168.304 33.4835L169.276 33.7165C169.649 32.1585 170.2 30.7448 170.924 29.4725L170.055 28.9775ZM168.303 33.4872C167.928 35.1065 167.74 36.7277 167.74 38.35H168.74C168.74 36.8056 168.919 35.2601 169.277 33.7128L168.303 33.4872ZM167.74 38.35C167.74 39.7895 167.911 41.1198 168.259 42.3374L169.221 42.0626C168.902 40.9469 168.74 39.7105 168.74 38.35H167.74ZM168.26 42.3392C168.613 43.5585 169.187 44.5655 169.995 45.3367L170.685 44.6133C170.026 43.9845 169.533 43.1415 169.22 42.0608L168.26 42.3392ZM169.999 45.3408C170.843 46.1269 171.94 46.5 173.24 46.5V45.5C172.14 45.5 171.304 45.1898 170.681 44.6092L169.999 45.3408ZM173.24 46.5C174.376 46.5 175.421 46.2686 176.363 45.7972L175.916 44.9028C175.126 45.298 174.237 45.5 173.24 45.5V46.5ZM176.367 45.7955C177.295 45.3224 178.093 44.7396 178.753 44.0441L178.027 43.3559C177.454 43.9604 176.751 44.4776 175.913 44.9045L176.367 45.7955ZM178.757 44.0395C179.4 43.3439 179.899 42.636 180.241 41.9145L179.338 41.4855C179.048 42.0973 178.613 42.7227 178.023 43.3605L178.757 44.0395ZM179.597 42.1613L186.297 44.9613L186.683 44.0387L179.983 41.2387L179.597 42.1613ZM186.058 44.2483C184.844 46.3318 183.532 48.0146 182.126 49.307L182.803 50.043C184.298 48.6688 185.669 46.9016 186.922 44.7517L186.058 44.2483ZM182.124 49.3089C180.733 50.6033 179.245 51.5501 177.661 52.1582L178.019 53.0918C179.735 52.4332 181.33 51.4133 182.805 50.0411L182.124 49.3089ZM177.665 52.1566C176.074 52.7513 174.383 53.05 172.59 53.05V54.05C174.497 54.05 176.306 53.732 178.015 53.0934L177.665 52.1566ZM185.68 53L185.242 52.7586L184.833 53.5H185.68V53ZM204.98 18V17.5H204.684L204.542 17.7586L204.98 18ZM212.58 18L213.07 17.9026L212.99 17.5H212.58V18ZM219.53 53V53.5H220.139L220.02 52.9026L219.53 53ZM211.73 53L211.239 53.0939L211.316 53.5H211.73V53ZM210.43 46.2L210.921 46.1061L210.843 45.7H210.43V46.2ZM197.53 46.2V45.7H197.233L197.09 45.961L197.53 46.2ZM193.83 53V53.5H194.127L194.269 53.239L193.83 53ZM201.08 39.25L200.641 39.0106L200.237 39.75H201.08V39.25ZM209.23 39.25V39.75H209.831L209.721 39.1591L209.23 39.25ZM207.63 30.6L207.138 30.6894L207.138 30.6909L207.63 30.6ZM207.48 29.775L207.972 29.6856L207.972 29.6856L207.48 29.775ZM207.28 28.675L206.784 28.7426L206.786 28.7535L206.788 28.7644L207.28 28.675ZM207.18 27.85L207.678 27.8047L206.718 27.6577L207.18 27.85ZM206.805 28.65L206.357 28.4264L206.353 28.4355L206.349 28.4448L206.805 28.65ZM206.305 29.65L205.867 29.409L205.862 29.4176L205.857 29.4264L206.305 29.65ZM205.88 30.45L205.448 30.1981L205.444 30.2043L205.441 30.2106L205.88 30.45ZM186.118 53.2414L205.418 18.2414L204.542 17.7586L185.242 52.7586L186.118 53.2414ZM204.98 18.5H212.58V17.5H204.98V18.5ZM212.089 18.0974L219.039 53.0974L220.02 52.9026L213.07 17.9026L212.089 18.0974ZM219.53 52.5H211.73V53.5H219.53V52.5ZM212.221 52.9061L210.921 46.1061L209.939 46.2939L211.239 53.0939L212.221 52.9061ZM210.43 45.7H197.53V46.7H210.43V45.7ZM197.09 45.961L193.39 52.761L194.269 53.239L197.969 46.439L197.09 45.961ZM193.83 52.5H185.68V53.5H193.83V52.5ZM201.08 39.75H209.23V38.75H201.08V39.75ZM209.721 39.1591L208.121 30.5091L207.138 30.6909L208.738 39.3409L209.721 39.1591ZM208.122 30.5106C208.088 30.3272 208.038 30.0522 207.972 29.6856L206.988 29.8644C207.054 30.2311 207.104 30.5061 207.138 30.6894L208.122 30.5106ZM207.972 29.6856C207.943 29.53 207.9 29.2911 207.872 29.1356C207.862 29.08 207.832 28.9161 207.822 28.8606C207.812 28.805 207.782 28.6411 207.772 28.5856L206.788 28.7644C206.816 28.92 206.859 29.1589 206.888 29.3144C206.898 29.37 206.928 29.5339 206.938 29.5894C206.948 29.645 206.978 29.8089 206.988 29.8644L207.972 29.6856ZM207.775 28.6074C207.725 28.2424 207.693 27.9765 207.678 27.8047L206.682 27.8953C206.699 28.0902 206.734 28.3743 206.784 28.7426L207.775 28.6074ZM206.718 27.6577C206.641 27.8422 206.522 28.0972 206.357 28.4264L207.252 28.8736C207.421 28.5362 207.551 28.2578 207.641 28.0423L206.718 27.6577ZM206.349 28.4448C206.204 28.7655 206.044 29.0869 205.867 29.409L206.743 29.891C206.932 29.5464 207.105 29.2012 207.261 28.8552L206.349 28.4448ZM205.857 29.4264C205.693 29.7551 205.557 30.0112 205.448 30.1981L206.312 30.7019C206.436 30.4888 206.583 30.2115 206.752 29.8736L205.857 29.4264ZM205.441 30.2106L200.641 39.0106L201.519 39.4894L206.319 30.6894L205.441 30.2106ZM228.738 52.25L228.979 51.8121L228.979 51.8121L228.738 52.25ZM224.713 48.6L224.299 48.8804L224.3 48.8825L224.713 48.6ZM222.363 43.35L222.192 42.8802L221.763 43.0365L221.88 43.4781L222.363 43.35ZM229.363 40.8L229.84 40.6509L229.684 40.1509L229.192 40.3302L229.363 40.8ZM231.488 44.725L231.117 45.0598L231.12 45.0631L231.488 44.725ZM238.063 45.875L237.898 45.4029L237.898 45.4029L238.063 45.875ZM239.763 44.8L239.396 44.4597L239.39 44.467L239.763 44.8ZM239.663 41.125L239.292 41.4608L239.298 41.467L239.663 41.125ZM237.713 39.7L237.486 40.1454L237.486 40.1454L237.713 39.7ZM235.013 38.45L235.208 37.9896L235.206 37.9889L235.013 38.45ZM231.838 37L232.059 36.5514L232.059 36.5514L231.838 37ZM228.838 35.025L228.506 35.3988L228.513 35.4051L228.838 35.025ZM226.638 32.075L226.186 32.2882L226.188 32.2935L226.638 32.075ZM227.313 22.5L227.733 22.7711L227.734 22.769L227.313 22.5ZM231.613 18.775L231.394 18.3254L231.392 18.3262L231.613 18.775ZM244.613 18.75L244.366 19.1847L244.369 19.1866L244.613 18.75ZM248.188 22.1L247.758 22.3549L247.759 22.3572L248.188 22.1ZM249.663 26.15L249.814 26.6267L250.214 26.4999L250.158 26.0835L249.663 26.15ZM242.713 28.35L242.218 28.4186L242.299 29.0055L242.864 28.8267L242.713 28.35ZM241.238 25.575L240.892 25.9359L240.899 25.943L241.238 25.575ZM234.613 25.3L234.924 25.6913L234.925 25.6904L234.613 25.3ZM234.163 28.875L233.809 29.2286L233.816 29.2353L233.823 29.2419L234.163 28.875ZM235.938 30.025L235.723 30.4763L235.726 30.4781L235.938 30.025ZM238.413 31.1L238.605 30.6382L238.602 30.637L238.413 31.1ZM241.788 32.625L241.569 33.0748L241.577 33.0784L241.788 32.625ZM245.063 34.7L244.743 35.0841L244.746 35.0867L245.063 34.7ZM247.513 37.825L247.064 38.0462L247.068 38.0534L247.513 37.825ZM246.738 48.2L246.324 47.9198L246.323 47.9208L246.738 48.2ZM241.913 52.175L242.12 52.6299L242.123 52.6286L241.913 52.175ZM234.563 53.1C232.38 53.1 230.525 52.6637 228.979 51.8121L228.497 52.6879C230.218 53.6363 232.246 54.1 234.563 54.1V53.1ZM228.979 51.8121C227.414 50.9497 226.131 49.7861 225.125 48.3175L224.3 48.8825C225.395 50.4805 226.795 51.7503 228.497 52.6879L228.979 51.8121ZM225.127 48.3196C224.111 46.8196 223.35 45.1218 222.846 43.2219L221.88 43.4781C222.41 45.4782 223.215 47.2804 224.299 48.8804L225.127 48.3196ZM222.534 43.8198L229.534 41.2698L229.192 40.3302L222.192 42.8802L222.534 43.8198ZM228.886 40.9491C229.402 42.6028 230.142 43.979 231.117 45.0598L231.859 44.3902C231 43.4377 230.323 42.1972 229.84 40.6509L228.886 40.9491ZM231.12 45.0631C232.177 46.2147 233.723 46.75 235.663 46.75V45.75C233.903 45.75 232.666 45.2686 231.856 44.3869L231.12 45.0631ZM235.663 46.75C236.593 46.75 237.45 46.6183 238.228 46.3471L237.898 45.4029C237.242 45.6317 236.499 45.75 235.663 45.75V46.75ZM238.228 46.3471C239.007 46.0751 239.652 45.6751 240.136 45.133L239.39 44.467C239.041 44.8582 238.552 45.1749 237.898 45.4029L238.228 46.3471ZM240.129 45.1402C240.653 44.5764 240.913 43.8864 240.913 43.1H239.913C239.913 43.647 239.74 44.0903 239.396 44.4598L240.129 45.1402ZM240.913 43.1C240.913 42.1996 240.621 41.4161 240.028 40.783L239.298 41.467C239.705 41.9006 239.913 42.4337 239.913 43.1H240.913ZM240.033 40.7892C239.5 40.2006 238.797 39.6916 237.94 39.2546L237.486 40.1454C238.262 40.5417 238.859 40.9828 239.292 41.4608L240.033 40.7892ZM237.94 39.2546C237.111 38.8318 236.2 38.4102 235.208 37.9896L234.818 38.9104C235.792 39.3232 236.681 39.7349 237.486 40.1454L237.94 39.2546ZM235.206 37.9889C234.183 37.5597 233.134 37.0806 232.059 36.5514L231.617 37.4486C232.709 37.986 233.776 38.4736 234.82 38.9111L235.206 37.9889ZM232.059 36.5514C231.013 36.0365 230.048 35.4011 229.163 34.6449L228.513 35.4051C229.461 36.2156 230.496 36.8969 231.617 37.4486L232.059 36.5514ZM229.17 34.6513C228.323 33.8981 227.628 32.9688 227.088 31.8565L226.188 32.2935C226.781 33.5145 227.553 34.5519 228.506 35.3987L229.17 34.6513ZM227.09 31.8618C226.58 30.78 226.313 29.4162 226.313 27.75H225.313C225.313 29.5171 225.596 31.0366 226.186 32.2882L227.09 31.8618ZM226.313 27.75C226.313 25.8904 226.788 24.2356 227.733 22.7711L226.893 22.2289C225.838 23.8644 225.313 25.7096 225.313 27.75H226.313ZM227.734 22.769C228.679 21.2885 230.039 20.105 231.833 19.2238L231.392 18.3262C229.454 19.2783 227.946 20.5782 226.891 22.231L227.734 22.769ZM231.832 19.2246C233.631 18.3487 235.819 17.9 238.413 17.9V16.9C235.707 16.9 233.361 17.368 231.394 18.3254L231.832 19.2246ZM238.413 17.9C240.909 17.9 242.882 18.3412 244.366 19.1847L244.86 18.3153C243.177 17.3588 241.017 16.9 238.413 16.9V17.9ZM244.369 19.1866C245.888 20.0337 247.009 21.092 247.758 22.3549L248.618 21.8451C247.766 20.408 246.505 19.2329 244.856 18.3134L244.369 19.1866ZM247.759 22.3572C248.529 23.6396 248.994 24.9254 249.167 26.2165L250.158 26.0835C249.965 24.6413 249.447 23.227 248.617 21.8428L247.759 22.3572ZM249.512 25.6733L242.562 27.8733L242.864 28.8267L249.814 26.6267L249.512 25.6733ZM243.208 28.2814C243.042 27.0788 242.492 26.0493 241.576 25.207L240.899 25.943C241.651 26.6341 242.084 27.4545 242.218 28.4186L243.208 28.2814ZM241.584 25.2142C240.653 24.3215 239.41 23.9 237.913 23.9V24.9C239.216 24.9 240.189 25.2619 240.892 25.9358L241.584 25.2142ZM237.913 23.9C236.405 23.9 235.174 24.2105 234.301 24.9096L234.925 25.6904C235.551 25.1895 236.521 24.9 237.913 24.9V23.9ZM234.302 24.9087C233.475 25.5662 233.013 26.3838 233.013 27.35H234.013C234.013 26.7495 234.284 26.2005 234.924 25.6913L234.302 24.9087ZM233.013 27.35C233.013 28.0732 233.288 28.7067 233.809 29.2286L234.516 28.5214C234.172 28.1766 234.013 27.7934 234.013 27.35H233.013ZM233.823 29.2419C234.32 29.7018 234.958 30.1111 235.723 30.4762L236.153 29.5738C235.452 29.2389 234.906 28.8815 234.503 28.5081L233.823 29.2419ZM235.726 30.4781C236.485 30.8321 237.318 31.1938 238.224 31.563L238.602 30.637C237.708 30.2729 236.891 29.9179 236.149 29.5719L235.726 30.4781ZM238.221 31.5617C239.295 32.0076 240.411 32.5119 241.569 33.0748L242.006 32.1752C240.832 31.6048 239.698 31.0924 238.605 30.6383L238.221 31.5617ZM241.577 33.0784C242.721 33.6102 243.776 34.2786 244.743 35.0841L245.383 34.3159C244.35 33.4547 243.221 32.7398 241.999 32.1716L241.577 33.0784ZM244.746 35.0867C245.704 35.8722 246.477 36.8562 247.064 38.0462L247.961 37.6038C247.315 36.2938 246.455 35.1945 245.38 34.3133L244.746 35.0867ZM247.068 38.0534C247.656 39.1988 247.963 40.6241 247.963 42.35H248.963C248.963 40.5093 248.636 38.9179 247.958 37.5966L247.068 38.0534ZM247.963 42.35C247.963 44.4577 247.414 46.3086 246.324 47.9198L247.152 48.4802C248.362 46.6914 248.963 44.6423 248.963 42.35H247.963ZM246.323 47.9208C245.247 49.5189 243.714 50.788 241.702 51.7214L242.123 52.6286C244.278 51.6287 245.962 50.2478 247.153 48.4792L246.323 47.9208ZM241.705 51.7201C239.7 52.6344 237.324 53.1 234.563 53.1V54.1C237.435 54.1 239.959 53.6156 242.12 52.6299L241.705 51.7201ZM257.593 53L257.1 52.9129L256.996 53.5H257.593V53ZM262.493 25.3L262.985 25.3871L263.089 24.8H262.493V25.3ZM252.993 25.3L252.5 25.2156L252.4 25.8H252.993V25.3ZM254.243 18V17.5H253.821L253.75 17.9156L254.243 18ZM280.893 18L281.385 18.0844L281.485 17.5H280.893V18ZM279.643 25.3V25.8H280.064L280.135 25.3844L279.643 25.3ZM270.093 25.3V24.8H269.673L269.6 25.2129L270.093 25.3ZM265.193 53V53.5H265.612L265.685 53.0871L265.193 53ZM258.085 53.0871L262.985 25.3871L262 25.2129L257.1 52.9129L258.085 53.0871ZM262.493 24.8H252.993V25.8H262.493V24.8ZM253.485 25.3844L254.735 18.0844L253.75 17.9156L252.5 25.2156L253.485 25.3844ZM254.243 18.5H280.893V17.5H254.243V18.5ZM280.4 17.9156L279.15 25.2156L280.135 25.3844L281.385 18.0844L280.4 17.9156ZM279.643 24.8H270.093V25.8H279.643V24.8ZM269.6 25.2129L264.7 52.9129L265.685 53.0871L270.585 25.3871L269.6 25.2129ZM265.193 52.5H257.593V53.5H265.193V52.5ZM272.789 53L272.351 52.7586L271.942 53.5H272.789V53ZM292.089 18V17.5H291.794L291.651 17.7586L292.089 18ZM299.689 18L300.179 17.9026L300.1 17.5H299.689V18ZM306.639 53V53.5H307.248L307.129 52.9026L306.639 53ZM298.839 53L298.348 53.0939L298.426 53.5H298.839V53ZM297.539 46.2L298.03 46.1061L297.953 45.7H297.539V46.2ZM284.639 46.2V45.7H284.342L284.2 45.961L284.639 46.2ZM280.939 53V53.5H281.236L281.378 53.239L280.939 53ZM288.189 39.25L287.75 39.0106L287.347 39.75H288.189V39.25ZM296.339 39.25V39.75H296.94L296.831 39.1591L296.339 39.25ZM294.739 30.6L294.247 30.6894L294.247 30.6909L294.739 30.6ZM294.589 29.775L295.081 29.6856L295.081 29.6856L294.589 29.775ZM294.389 28.675L293.894 28.7426L293.895 28.7535L293.897 28.7644L294.389 28.675ZM294.289 27.85L294.787 27.8047L293.828 27.6577L294.289 27.85ZM293.914 28.65L293.467 28.4264L293.462 28.4355L293.458 28.4448L293.914 28.65ZM293.414 29.65L292.976 29.409L292.971 29.4176L292.967 29.4264L293.414 29.65ZM292.989 30.45L292.557 30.1981L292.554 30.2043L292.55 30.2106L292.989 30.45ZM273.227 53.2414L292.527 18.2414L291.651 17.7586L272.351 52.7586L273.227 53.2414ZM292.089 18.5H299.689V17.5H292.089V18.5ZM299.199 18.0974L306.149 53.0974L307.129 52.9026L300.179 17.9026L299.199 18.0974ZM306.639 52.5H298.839V53.5H306.639V52.5ZM299.33 52.9061L298.03 46.1061L297.048 46.2939L298.348 53.0939L299.33 52.9061ZM297.539 45.7H284.639V46.7H297.539V45.7ZM284.2 45.961L280.5 52.761L281.378 53.239L285.078 46.439L284.2 45.961ZM280.939 52.5H272.789V53.5H280.939V52.5ZM288.189 39.75H296.339V38.75H288.189V39.75ZM296.831 39.1591L295.231 30.5091L294.247 30.6909L295.847 39.3409L296.831 39.1591ZM295.231 30.5106C295.198 30.3272 295.148 30.0522 295.081 29.6856L294.097 29.8644C294.164 30.2311 294.214 30.5061 294.247 30.6894L295.231 30.5106ZM295.081 29.6856C295.053 29.53 295.009 29.2911 294.981 29.1356C294.971 29.08 294.941 28.9161 294.931 28.8606C294.921 28.805 294.891 28.6411 294.881 28.5856L293.897 28.7644C293.925 28.92 293.969 29.1589 293.997 29.3144C294.007 29.37 294.037 29.5339 294.047 29.5894C294.057 29.645 294.087 29.8089 294.097 29.8644L295.081 29.6856ZM294.884 28.6074C294.835 28.2424 294.803 27.9765 294.787 27.8047L293.791 27.8953C293.809 28.0902 293.843 28.3743 293.894 28.7426L294.884 28.6074ZM293.828 27.6577C293.751 27.8422 293.631 28.0972 293.467 28.4264L294.361 28.8736C294.53 28.5362 294.661 28.2578 294.751 28.0423L293.828 27.6577ZM293.458 28.4448C293.314 28.7655 293.153 29.0869 292.976 29.409L293.852 29.891C294.042 29.5464 294.214 29.2012 294.37 28.8552L293.458 28.4448ZM292.967 29.4264C292.802 29.7551 292.666 30.0112 292.557 30.1981L293.421 30.7019C293.545 30.4888 293.692 30.2115 293.861 29.8736L292.967 29.4264ZM292.55 30.2106L287.75 39.0106L288.628 39.4894L293.428 30.6894L292.55 30.2106ZM309.121 53L308.629 52.9135L308.526 53.5H309.121V53ZM315.271 18V17.5H314.851L314.779 17.9135L315.271 18ZM322.371 18L322.821 17.7809L322.684 17.5H322.371V18ZM331.171 36.05L330.722 36.2691L330.724 36.2736L331.171 36.05ZM331.821 37.5L331.36 37.6923L331.362 37.697L331.821 37.5ZM332.371 39.25L331.881 39.3481L332.87 39.2777L332.371 39.25ZM332.521 37.45L333.018 37.5052L333.018 37.5037L332.521 37.45ZM332.721 35.9L332.229 35.8133L332.227 35.821L332.721 35.9ZM335.871 18V17.5H335.451L335.379 17.9133L335.871 18ZM343.371 18L343.864 18.0865L343.967 17.5H343.371V18ZM337.221 53V53.5H337.641L337.714 53.0865L337.221 53ZM330.621 53L330.173 53.2227L330.311 53.5H330.621V53ZM321.221 34.1L321.669 33.8773L321.668 33.8764L321.221 34.1ZM320.896 33.35L320.43 33.5312L320.43 33.5312L320.896 33.35ZM320.546 32.375L320.072 32.5331L320.072 32.5331L320.546 32.375ZM320.221 31.3L320.703 31.1684L319.721 31.3H320.221ZM320.171 32.275L319.673 32.2276L319.672 32.2394L319.672 32.2512L320.171 32.275ZM320.071 33.3L319.577 33.2258L319.577 33.2258L320.071 33.3ZM319.921 34.2L319.43 34.1078L319.429 34.1136L319.921 34.2ZM316.621 53V53.5H317.041L317.114 53.0864L316.621 53ZM331.246 14.225L331.068 14.6923L331.078 14.6959L331.246 14.225ZM329.271 13.35L329.041 13.7941L329.043 13.7948L329.271 13.35ZM327.771 12.675L327.572 13.1338L327.581 13.1377L327.591 13.1413L327.771 12.675ZM324.546 12.825L324.816 13.2456L324.82 13.2432L324.546 12.825ZM323.571 14.4V14.9H323.964L324.057 14.5187L323.571 14.4ZM320.371 14.4L319.878 14.3159L319.778 14.9H320.371V14.4ZM322.496 9.25L322.101 8.944L322.1 8.94468L322.496 9.25ZM331.821 8.4L332.045 7.95276L332.04 7.95038L331.821 8.4ZM333.371 9.1L333.185 9.56424L333.185 9.56424L333.371 9.1ZM336.571 8.95L336.842 9.37072L336.852 9.36374L336.571 8.95ZM337.521 7.35V6.85H337.12L337.033 7.24153L337.521 7.35ZM340.771 7.35L341.263 7.43734L341.368 6.85H340.771V7.35ZM338.621 12.525L338.225 12.2197L338.225 12.2197L338.621 12.525ZM309.614 53.0865L315.764 18.0865L314.779 17.9135L308.629 52.9135L309.614 53.0865ZM315.271 18.5H322.371V17.5H315.271V18.5ZM321.922 18.2191L330.722 36.2691L331.621 35.8309L322.821 17.7809L321.922 18.2191ZM330.724 36.2736C330.9 36.6259 331.112 37.0976 331.36 37.6923L332.283 37.3077C332.03 36.7024 331.809 36.2075 331.618 35.8264L330.724 36.2736ZM331.362 37.697C331.599 38.2506 331.771 38.8008 331.881 39.3481L332.861 39.1519C332.737 38.5325 332.543 37.9161 332.281 37.303L331.362 37.697ZM332.87 39.2777C332.903 38.687 332.952 38.0961 333.018 37.5052L332.024 37.3948C331.956 38.0039 331.906 38.613 331.872 39.2223L332.87 39.2777ZM333.018 37.5037C333.084 36.892 333.15 36.3844 333.215 35.979L332.227 35.821C332.159 36.2489 332.091 36.7747 332.024 37.3963L333.018 37.5037ZM333.214 35.9867L336.364 18.0867L335.379 17.9133L332.229 35.8133L333.214 35.9867ZM335.871 18.5H343.371V17.5H335.871V18.5ZM342.879 17.9135L336.729 52.9135L337.714 53.0865L343.864 18.0865L342.879 17.9135ZM337.221 52.5H330.621V53.5H337.221V52.5ZM331.069 52.7773L321.669 33.8773L320.773 34.3227L330.173 53.2227L331.069 52.7773ZM321.668 33.8764C321.577 33.6948 321.475 33.46 321.362 33.1688L320.43 33.5312C320.55 33.84 320.665 34.1052 320.774 34.3236L321.668 33.8764ZM321.362 33.1688C321.249 32.8774 321.135 32.5602 321.02 32.2169L320.072 32.5331C320.191 32.8898 320.31 33.2226 320.43 33.5312L321.362 33.1688ZM321.02 32.2169C320.907 31.8759 320.801 31.5264 320.703 31.1684L319.739 31.4316C319.841 31.8069 319.952 32.1741 320.072 32.5331L321.02 32.2169ZM319.721 31.3C319.721 31.5818 319.705 31.8908 319.673 32.2276L320.669 32.3224C320.703 31.9592 320.721 31.6182 320.721 31.3H319.721ZM319.672 32.2512C319.656 32.585 319.624 32.9098 319.577 33.2258L320.566 33.3742C320.618 33.0235 320.653 32.665 320.671 32.2988L319.672 32.2512ZM319.577 33.2258C319.527 33.5545 319.478 33.8484 319.43 34.1079L320.413 34.2921C320.464 34.0183 320.515 33.7121 320.566 33.3742L319.577 33.2258ZM319.429 34.1136L316.129 52.9136L317.114 53.0864L320.414 34.2864L319.429 34.1136ZM316.621 52.5H309.121V53.5H316.621V52.5ZM333.671 14.1C332.799 14.1 332.049 13.981 331.414 13.7541L331.078 14.6959C331.843 14.969 332.71 15.1 333.671 15.1V14.1ZM331.424 13.7578C330.74 13.4971 330.099 13.2128 329.499 12.9052L329.043 13.7948C329.677 14.1205 330.352 14.4195 331.068 14.6922L331.424 13.7578ZM329.501 12.9059C329.001 12.6475 328.485 12.4151 327.952 12.2087L327.591 13.1413C328.091 13.3349 328.574 13.5525 329.041 13.7941L329.501 12.9059ZM327.97 12.2162C327.405 11.9713 326.803 11.85 326.171 11.85V12.85C326.672 12.85 327.138 12.9454 327.572 13.1338L327.97 12.2162ZM326.171 11.85C325.478 11.85 324.84 12.0346 324.272 12.4068L324.82 13.2432C325.219 12.982 325.665 12.85 326.171 12.85V11.85ZM324.276 12.4044C323.665 12.797 323.287 13.456 323.085 14.2813L324.057 14.5187C324.222 13.844 324.494 13.453 324.816 13.2456L324.276 12.4044ZM323.571 13.9H320.371V14.9H323.571V13.9ZM320.864 14.4841C321.203 12.4994 321.884 10.8627 322.892 9.55531L322.1 8.94468C320.975 10.404 320.239 12.2006 319.878 14.3159L320.864 14.4841ZM322.892 9.55599C323.857 8.30782 325.334 7.65 327.421 7.65V6.65C325.108 6.65 323.301 7.39217 322.101 8.94401L322.892 9.55599ZM327.421 7.65C328.29 7.65 329.036 7.77647 329.668 8.01724L330.024 7.08275C329.256 6.79019 328.385 6.65 327.421 6.65V7.65ZM329.668 8.01724C330.356 8.27912 331 8.55665 331.602 8.84962L332.04 7.95038C331.409 7.64335 330.737 7.35422 330.024 7.08275L329.668 8.01724ZM331.597 8.84721C332.142 9.11943 332.671 9.35858 333.185 9.56424L333.557 8.63576C333.071 8.44142 332.567 8.2139 332.045 7.95278L331.597 8.84721ZM333.185 9.56424C333.748 9.78908 334.344 9.9 334.971 9.9V8.9C334.465 8.9 333.995 8.81091 333.557 8.63576L333.185 9.56424ZM334.971 9.9C335.659 9.9 336.288 9.72667 336.841 9.37059L336.301 8.52941C335.921 8.77333 335.483 8.9 334.971 8.9V9.9ZM336.852 9.36374C337.457 8.95287 337.825 8.28711 338.009 7.45846L337.033 7.24153C336.884 7.91288 336.618 8.3138 336.29 8.53626L336.852 9.36374ZM337.521 7.85H340.771V6.85H337.521V7.85ZM340.279 7.26265C339.923 9.26584 339.234 10.9118 338.225 12.2197L339.017 12.8303C340.142 11.3715 340.885 9.5675 341.263 7.43734L340.279 7.26265ZM338.225 12.2197C337.279 13.4471 335.797 14.1 333.671 14.1V15.1C336.012 15.1 337.83 14.3696 339.017 12.8303L338.225 12.2197ZM343.154 53L342.662 52.9135L342.559 53.5H343.154V53ZM349.304 18V17.5H348.884L348.812 17.9135L349.304 18ZM373.154 18L373.647 18.0855L373.749 17.5H373.154V18ZM371.904 25.2V25.7H372.325L372.397 25.2855L371.904 25.2ZM355.754 25.2V24.7H355.336L355.262 25.112L355.754 25.2ZM354.654 31.35L354.162 31.262L354.057 31.85H354.654V31.35ZM363.654 31.35L364.147 31.4355L364.249 30.85H363.654V31.35ZM362.404 38.55V39.05H362.825L362.897 38.6355L362.404 38.55ZM353.354 38.55V38.05H352.934L352.862 38.4645L353.354 38.55ZM352.104 45.75L351.612 45.6645L351.51 46.25H352.104V45.75ZM369.304 45.75L369.796 45.8382L369.902 45.25H369.304V45.75ZM368.004 53V53.5H368.423L368.496 53.0882L368.004 53ZM343.647 53.0865L349.797 18.0865L348.812 17.9135L342.662 52.9135L343.647 53.0865ZM349.304 18.5H373.154V17.5H349.304V18.5ZM372.662 17.9145L371.412 25.1145L372.397 25.2855L373.647 18.0855L372.662 17.9145ZM371.904 24.7H355.754V25.7H371.904V24.7ZM355.262 25.112L354.162 31.262L355.146 31.438L356.246 25.288L355.262 25.112ZM354.654 31.85H363.654V30.85H354.654V31.85ZM363.162 31.2645L361.912 38.4645L362.897 38.6355L364.147 31.4355L363.162 31.2645ZM362.404 38.05H353.354V39.05H362.404V38.05ZM352.862 38.4645L351.612 45.6645L352.597 45.8355L353.847 38.6355L352.862 38.4645ZM352.104 46.25H369.304V45.25H352.104V46.25ZM368.812 45.6618L367.512 52.9118L368.496 53.0882L369.796 45.8382L368.812 45.6618ZM368.004 52.5H343.154V53.5H368.004V52.5ZM372.354 53L371.861 52.9135L371.758 53.5H372.354V53ZM378.504 18V17.5H378.084L378.011 17.9135L378.504 18ZM396.254 19.25L396.045 19.7045L396.05 19.7067L396.254 19.25ZM400.804 22.7L400.415 23.0145L400.417 23.0166L400.804 22.7ZM403.504 27.875L403.025 28.0198L403.025 28.0209L403.504 27.875ZM403.704 39.625L403.22 39.4995L403.219 39.5027L403.704 39.625ZM401.604 44.725L402.033 44.9803L402.035 44.9783L401.604 44.725ZM397.979 49L398.302 49.3809L398.303 49.3805L397.979 49ZM392.804 51.925L392.635 51.4543L392.635 51.4543L392.804 51.925ZM381.004 45.75L380.511 45.6637L380.408 46.25H381.004V45.75ZM390.204 44.825L390.418 45.2768L390.423 45.2745L390.204 44.825ZM393.479 42.3L393.861 42.6219L393.864 42.6189L393.479 42.3ZM395.479 38.725L395.952 38.8867L395.952 38.8849L395.479 38.725ZM392.829 26.35L392.543 26.7602L392.546 26.7622L392.829 26.35ZM384.604 25.2V24.7H384.183L384.111 25.1137L384.604 25.2ZM372.846 53.0865L378.996 18.0865L378.011 17.9135L371.861 52.9135L372.846 53.0865ZM378.504 18.5H389.854V17.5H378.504V18.5ZM389.854 18.5C392.247 18.5 394.307 18.9071 396.045 19.7045L396.462 18.7955C394.567 17.9262 392.36 17.5 389.854 17.5V18.5ZM396.05 19.7067C397.815 20.493 399.267 21.5957 400.415 23.0145L401.192 22.3855C399.94 20.8376 398.359 19.6403 396.457 18.7933L396.05 19.7067ZM400.417 23.0166C401.571 24.428 402.442 26.0933 403.025 28.0198L403.982 27.7302C403.365 25.69 402.436 23.9053 401.19 22.3834L400.417 23.0166ZM403.025 28.0209C403.609 29.9354 403.904 32.0107 403.904 34.25H404.904C404.904 31.9226 404.598 29.748 403.982 27.7291L403.025 28.0209ZM403.904 34.25C403.904 35.9892 403.676 37.7387 403.22 39.4995L404.188 39.7505C404.664 37.9113 404.904 36.0774 404.904 34.25H403.904ZM403.219 39.5027C402.781 41.2391 402.099 42.8951 401.172 44.4717L402.035 44.9783C403.008 43.3216 403.726 41.5776 404.188 39.7473L403.219 39.5027ZM401.174 44.4697C400.253 46.0208 399.081 47.4038 397.654 48.6195L398.303 49.3805C399.81 48.0962 401.054 46.6292 402.033 44.9803L401.174 44.4697ZM397.655 48.6191C396.256 49.8091 394.585 50.7556 392.635 51.4543L392.972 52.3957C395.022 51.661 396.802 50.6575 398.302 49.3809L397.655 48.6191ZM392.635 51.4543C390.699 52.148 388.474 52.5 385.954 52.5V53.5C388.566 53.5 390.908 53.1353 392.972 52.3957L392.635 51.4543ZM385.954 52.5H372.354V53.5H385.954V52.5ZM381.004 46.25H385.704V45.25H381.004V46.25ZM385.704 46.25C387.464 46.25 389.04 45.9304 390.418 45.2768L389.989 44.3732C388.767 44.9529 387.343 45.25 385.704 45.25V46.25ZM390.423 45.2745C391.782 44.6122 392.93 43.7283 393.861 42.6219L393.096 41.9781C392.26 42.9717 391.225 43.7711 389.985 44.3755L390.423 45.2745ZM393.864 42.6189C394.786 41.5054 395.482 40.2604 395.952 38.8867L395.005 38.5633C394.575 39.8229 393.938 40.9613 393.093 41.9811L393.864 42.6189ZM395.952 38.8849C396.419 37.5009 396.654 36.0886 396.654 34.65H395.654C395.654 35.978 395.438 37.2824 395.005 38.5651L395.952 38.8849ZM396.654 34.65C396.654 32.6709 396.372 30.9317 395.795 29.444L394.862 29.806C395.385 31.1516 395.654 32.7624 395.654 34.65H396.654ZM395.795 29.444C395.213 27.9455 394.321 26.7682 393.112 25.9378L392.546 26.7622C393.569 27.4651 394.344 28.4712 394.862 29.806L395.795 29.444ZM393.114 25.9398C391.911 25.1013 390.413 24.7 388.654 24.7V25.7C390.261 25.7 391.546 26.0654 392.543 26.7602L393.114 25.9398ZM388.654 24.7H384.604V25.7H388.654V24.7ZM384.111 25.1137L380.511 45.6637L381.496 45.8363L385.096 25.2863L384.111 25.1137ZM402.33 53L401.892 52.7586L401.483 53.5H402.33V53ZM421.63 18V17.5H421.335L421.192 17.7586L421.63 18ZM429.23 18L429.721 17.9026L429.641 17.5H429.23V18ZM436.18 53V53.5H436.789L436.671 52.9026L436.18 53ZM428.38 53L427.889 53.0939L427.967 53.5H428.38V53ZM427.08 46.2L427.571 46.1061L427.494 45.7H427.08V46.2ZM414.18 46.2V45.7H413.883L413.741 45.961L414.18 46.2ZM410.48 53V53.5H410.777L410.919 53.239L410.48 53ZM417.73 39.25L417.291 39.0106L416.888 39.75H417.73V39.25ZM425.88 39.25V39.75H426.481L426.372 39.1591L425.88 39.25ZM424.28 30.6L423.788 30.6894L423.788 30.6909L424.28 30.6ZM424.13 29.775L424.622 29.6856L424.622 29.6856L424.13 29.775ZM423.93 28.675L423.435 28.7426L423.436 28.7535L423.438 28.7644L423.93 28.675ZM423.83 27.85L424.328 27.8047L423.369 27.6577L423.83 27.85ZM423.455 28.65L423.008 28.4264L423.003 28.4355L422.999 28.4448L423.455 28.65ZM422.955 29.65L422.517 29.409L422.512 29.4176L422.508 29.4264L422.955 29.65ZM422.53 30.45L422.098 30.1981L422.095 30.2043L422.091 30.2106L422.53 30.45ZM402.768 53.2414L422.068 18.2414L421.192 17.7586L401.892 52.7586L402.768 53.2414ZM421.63 18.5H429.23V17.5H421.63V18.5ZM428.74 18.0974L435.69 53.0974L436.671 52.9026L429.721 17.9026L428.74 18.0974ZM436.18 52.5H428.38V53.5H436.18V52.5ZM428.871 52.9061L427.571 46.1061L426.589 46.2939L427.889 53.0939L428.871 52.9061ZM427.08 45.7H414.18V46.7H427.08V45.7ZM413.741 45.961L410.041 52.761L410.919 53.239L414.619 46.439L413.741 45.961ZM410.48 52.5H402.33V53.5H410.48V52.5ZM417.73 39.75H425.88V38.75H417.73V39.75ZM426.372 39.1591L424.772 30.5091L423.788 30.6909L425.388 39.3409L426.372 39.1591ZM424.772 30.5106C424.739 30.3272 424.689 30.0522 424.622 29.6856L423.638 29.8644C423.705 30.2311 423.755 30.5061 423.788 30.6894L424.772 30.5106ZM424.622 29.6856C424.594 29.53 424.55 29.2911 424.522 29.1356C424.512 29.08 424.482 28.9161 424.472 28.8606C424.462 28.805 424.432 28.6411 424.422 28.5856L423.438 28.7644C423.466 28.92 423.51 29.1589 423.538 29.3144C423.548 29.37 423.578 29.5339 423.588 29.5894C423.598 29.645 423.628 29.8089 423.638 29.8644L424.622 29.6856ZM424.425 28.6074C424.376 28.2424 424.344 27.9765 424.328 27.8047L423.332 27.8953C423.35 28.0902 423.384 28.3743 423.435 28.7426L424.425 28.6074ZM423.369 27.6577C423.292 27.8422 423.172 28.0972 423.008 28.4264L423.902 28.8736C424.071 28.5362 424.202 28.2578 424.292 28.0423L423.369 27.6577ZM422.999 28.4448C422.855 28.7655 422.694 29.0869 422.517 29.409L423.393 29.891C423.583 29.5464 423.755 29.2012 423.911 28.8552L422.999 28.4448ZM422.508 29.4264C422.343 29.7551 422.207 30.0112 422.098 30.1981L422.962 30.7019C423.086 30.4888 423.233 30.2115 423.402 29.8736L422.508 29.4264ZM422.091 30.2106L417.291 39.0106L418.169 39.4894L422.969 30.6894L422.091 30.2106Z" fill="black" mask="url(#path-1-outside-1_2278_2)"/>
</g>
</g>
<defs>
<filter id="filter0_d_2278_2" x="4.54688" y="7.15039" width="435.633" height="54.4492" filterUnits="userSpaceOnUse" color-interpolation-filters="sRGB">
<feFlood flood-opacity="0" result="BackgroundImageFix"/>
<feColorMatrix in="SourceAlpha" type="matrix" values="0 0 0 0 0 0 0 0 0 0 0 0 0 0 0 0 0 0 127 0" result="hardAlpha"/>
<feOffset dy="4"/>
<feGaussianBlur stdDeviation="2"/>
<feComposite in2="hardAlpha" operator="out"/>
<feColorMatrix type="matrix" values="0 0 0 0 0 0 0 0 0 0 0 0 0 0 0 0 0 0 0.25 0"/>
<feBlend mode="normal" in2="BackgroundImageFix" result="effect1_dropShadow_2278_2"/>
<feBlend mode="normal" in="SourceGraphic" in2="effect1_dropShadow_2278_2" result="shape"/>
</filter>
<clipPath id="clip0_2278_2">
<rect width="453" height="74" fill="white"/>
</clipPath>
</defs>
</svg>
